<svg xmlns="http://www.w3.org/2000/svg" xmlns:xlink="http://www.w3.org/1999/xlink" width="789" height="356" viewBox="138 -650 789 356"><title>Sheet_1as</title><style type="text/css">
path, polyline, polygon {stroke-linejoin:round;}
path, polyline, polygon, line {stroke-linecap:round;}
</style>
<rect x="138" y="-650" width="789" height="356" fill="#FFFFFF" stroke="none"/><g importFlag="0"><g locked="0"><text x="575" y="-480.01" fill="#0000FF" font-family="Verdana" font-size="7.5pt" font-weight="" font-style="" dominant-baseline="" text-anchor="start" type="comment" transform="rotate(270,575,-480.01)">BLACK PILL</text></g><g locked="0"><text x="583" y="-387" font-family="Verdana" font-size="4pt" fill="#0000FF" text-anchor="start" transform="rotate(270,583,-387)">GND</text><text x="579" y="-380" font-family="Verdana" font-size="4pt" fill="#0000FF" text-anchor="end" transform="rotate(270,579,-380)">44</text><path d="M 580 -365 v -20" fill="none" stroke="#880000" stroke-width="1"/><circle cx="580" cy="-382" r="3" stroke="#880000" fill="none" stroke-width="1" display="none"/><path d="M 583 -385 L 580 -388 L 577 -385" fill="none" stroke="#880000" stroke-width="1" display="none"/></g><g locked="0"><text x="573" y="-387" font-family="Verdana" font-size="4pt" fill="#0000FF" text-anchor="start" transform="rotate(270,573,-387)">PA-14/SWCLK</text><text x="569" y="-380" font-family="Verdana" font-size="4pt" fill="#0000FF" text-anchor="end" transform="rotate(270,569,-380)">43</text><path d="M 570 -365 v -20" fill="none" stroke="#880000" stroke-width="1"/><circle cx="570" cy="-382" r="3" stroke="#880000" fill="none" stroke-width="1" display="none"/><path d="M 573 -385 L 570 -388 L 567 -385" fill="none" stroke="#880000" stroke-width="1" display="none"/></g><g locked="0"><text x="563" y="-387" font-family="Verdana" font-size="4pt" fill="#0000FF" text-anchor="start" transform="rotate(270,563,-387)">PA-13/SWDIO</text><text x="559" y="-380" font-family="Verdana" font-size="4pt" fill="#0000FF" text-anchor="end" transform="rotate(270,559,-380)">42</text><path d="M 560 -365 v -20" fill="none" stroke="#880000" stroke-width="1"/><circle cx="560" cy="-382" r="3" stroke="#880000" fill="none" stroke-width="1" display="none"/><path d="M 563 -385 L 560 -388 L 557 -385" fill="none" stroke="#880000" stroke-width="1" display="none"/></g><g locked="0"><text x="553" y="-387" font-family="Verdana" font-size="4pt" fill="#0000FF" text-anchor="start" transform="rotate(270,553,-387)">+3.3V</text><text x="549" y="-380" font-family="Verdana" font-size="4pt" fill="#0000FF" text-anchor="end" transform="rotate(270,549,-380)">41</text><path d="M 550 -365 v -20" fill="none" stroke="#880000" stroke-width="1"/><circle cx="550" cy="-382" r="3" stroke="#880000" fill="none" stroke-width="1" display="none"/><path d="M 553 -385 L 550 -388 L 547 -385" fill="none" stroke="#880000" stroke-width="1" display="none"/></g><g locked="0"><text x="565" y="-550" fill="#0000FF" font-family="Verdana" font-size="7.5pt" font-weight="300" font-style="" dominant-baseline="" text-anchor="end" type="comment" transform="rotate(270,565,-550)">STM32F411CEU6</text></g><g locked="0"><text x="501.65" y="-391.66" font-family="Verdana" font-size="4pt" fill="#0000FF" text-anchor="start">+3.3V</text><text x="494.65" y="-395.66" font-family="Verdana" font-size="4pt" fill="#0000FF" text-anchor="end" display="none">20</text><path d="M 480 -395 h 20" fill="none" stroke="#880000" stroke-width="1"/><circle cx="497" cy="-395" r="3" stroke="#880000" fill="none" stroke-width="1" display="none"/><path d="M 500 -392 L 503 -395 L 500 -398" fill="none" stroke="#880000" stroke-width="1" display="none"/></g><g locked="0"><text x="501.65" y="-401.66" font-family="Verdana" font-size="4pt" fill="#0000FF" text-anchor="start">GND</text><text x="494.65" y="-405.66" font-family="Verdana" font-size="4pt" fill="#0000FF" text-anchor="end" display="none">19</text><path d="M 480 -405 h 20" fill="none" stroke="#880000" stroke-width="1"/><circle cx="497" cy="-405" r="3" stroke="#880000" fill="none" stroke-width="1" display="none"/><path d="M 500 -402 L 503 -405 L 500 -408" fill="none" stroke="#880000" stroke-width="1" display="none"/></g><g locked="0"><text x="501.65" y="-411.66" font-family="Verdana" font-size="4pt" fill="#0000FF" text-anchor="start">+5V</text><text x="494.65" y="-415.66" font-family="Verdana" font-size="4pt" fill="#0000FF" text-anchor="end" display="none">18</text><path d="M 480 -415 h 20" fill="none" stroke="#880000" stroke-width="1"/><circle cx="497" cy="-415" r="3" stroke="#880000" fill="none" stroke-width="1" display="none"/><path d="M 500 -412 L 503 -415 L 500 -418" fill="none" stroke="#880000" stroke-width="1" display="none"/></g><g locked="0"><text x="501.65" y="-421.66" font-family="Verdana" font-size="4pt" fill="#0000FF" text-anchor="start">PB-9/SDA1</text><text x="494.65" y="-425.66" font-family="Verdana" font-size="4pt" fill="#0000FF" text-anchor="end" display="none">17</text><path d="M 480 -425 h 20" fill="none" stroke="#880000" stroke-width="1"/><circle cx="497" cy="-425" r="3" stroke="#880000" fill="none" stroke-width="1" display="none"/><path d="M 500 -422 L 503 -425 L 500 -428" fill="none" stroke="#880000" stroke-width="1" display="none"/></g><g locked="0"><text x="501.65" y="-431.66" font-family="Verdana" font-size="4pt" fill="#0000FF" text-anchor="start">PB-8/SCL1</text><text x="494.65" y="-435.66" font-family="Verdana" font-size="4pt" fill="#0000FF" text-anchor="end" display="none">16</text><path d="M 480 -435 h 20" fill="none" stroke="#880000" stroke-width="1"/><circle cx="497" cy="-435" r="3" stroke="#880000" fill="none" stroke-width="1" display="none"/><path d="M 500 -432 L 503 -435 L 500 -438" fill="none" stroke="#880000" stroke-width="1" display="none"/></g><g locked="0"><text x="501.65" y="-441.66" font-family="Verdana" font-size="4pt" fill="#0000FF" text-anchor="start">PB-7/RX1</text><text x="494.65" y="-445.66" font-family="Verdana" font-size="4pt" fill="#0000FF" text-anchor="end" display="none">15</text><path d="M 480 -445 h 20" fill="none" stroke="#880000" stroke-width="1"/><circle cx="497" cy="-445" r="3" stroke="#880000" fill="none" stroke-width="1" display="none"/><path d="M 500 -442 L 503 -445 L 500 -448" fill="none" stroke="#880000" stroke-width="1" display="none"/></g><g locked="0"><text x="501.65" y="-451.66" font-family="Verdana" font-size="4pt" fill="#0000FF" text-anchor="start">PB-6/TX1</text><text x="494.65" y="-455.66" font-family="Verdana" font-size="4pt" fill="#0000FF" text-anchor="end" display="none">14</text><path d="M 480 -455 h 20" fill="none" stroke="#880000" stroke-width="1"/><circle cx="497" cy="-455" r="3" stroke="#880000" fill="none" stroke-width="1" display="none"/><path d="M 500 -452 L 503 -455 L 500 -458" fill="none" stroke="#880000" stroke-width="1" display="none"/></g><g locked="0"><text x="501.65" y="-461.66" font-family="Verdana" font-size="4pt" fill="#0000FF" text-anchor="start">PB-5/SD_D3</text><text x="494.65" y="-465.66" font-family="Verdana" font-size="4pt" fill="#0000FF" text-anchor="end" display="none">13</text><path d="M 480 -465 h 20" fill="none" stroke="#880000" stroke-width="1"/><circle cx="497" cy="-465" r="3" stroke="#880000" fill="none" stroke-width="1" display="none"/><path d="M 500 -462 L 503 -465 L 500 -468" fill="none" stroke="#880000" stroke-width="1" display="none"/></g><g locked="0"><text x="501.65" y="-471.66" font-family="Verdana" font-size="4pt" fill="#0000FF" text-anchor="start">PB-4/SD_D0</text><text x="494.65" y="-475.66" font-family="Verdana" font-size="4pt" fill="#0000FF" text-anchor="end" display="none">12</text><path d="M 480 -475 h 20" fill="none" stroke="#880000" stroke-width="1"/><circle cx="497" cy="-475" r="3" stroke="#880000" fill="none" stroke-width="1" display="none"/><path d="M 500 -472 L 503 -475 L 500 -478" fill="none" stroke="#880000" stroke-width="1" display="none"/></g><g locked="0"><text x="501.65" y="-482.34" font-family="Verdana" font-size="4pt" fill="#0000FF" text-anchor="start">PB-3/SDA2</text><text x="494.65" y="-485.66" font-family="Verdana" font-size="4pt" fill="#0000FF" text-anchor="end" display="none">11</text><path d="M 480 -485 h 20" fill="none" stroke="#880000" stroke-width="1"/><circle cx="497" cy="-485" r="3" stroke="#880000" fill="none" stroke-width="1" display="none"/><path d="M 500 -482 L 503 -485 L 500 -488" fill="none" stroke="#880000" stroke-width="1" display="none"/></g><g locked="0"><text x="501.65" y="-491.66" font-family="Verdana" font-size="4pt" fill="#0000FF" text-anchor="start">PA-15/PWM</text><text x="494.65" y="-495.66" font-family="Verdana" font-size="4pt" fill="#0000FF" text-anchor="end" display="none">10</text><path d="M 480 -495 h 20" fill="none" stroke="#880000" stroke-width="1"/><circle cx="497" cy="-495" r="3" stroke="#880000" fill="none" stroke-width="1" display="none"/><path d="M 500 -492 L 503 -495 L 500 -498" fill="none" stroke="#880000" stroke-width="1" display="none"/></g><g locked="0"><text x="501.65" y="-501.66" font-family="Verdana" font-size="4pt" fill="#0000FF" text-anchor="start">PA-12/USB/RX6</text><text x="494.65" y="-505.66" font-family="Verdana" font-size="4pt" fill="#0000FF" text-anchor="end" display="none">9</text><path d="M 480 -505 h 20" fill="none" stroke="#880000" stroke-width="1"/><circle cx="497" cy="-505" r="3" stroke="#880000" fill="none" stroke-width="1" display="none"/><path d="M 500 -502 L 503 -505 L 500 -508" fill="none" stroke="#880000" stroke-width="1" display="none"/></g><g locked="0"><text x="501.65" y="-511.66" font-family="Verdana" font-size="4pt" fill="#0000FF" text-anchor="start">PA-11/USB/TX6</text><text x="494.65" y="-515.66" font-family="Verdana" font-size="4pt" fill="#0000FF" text-anchor="end" display="none">8</text><path d="M 480 -515 h 20" fill="none" stroke="#880000" stroke-width="1"/><circle cx="497" cy="-515" r="3" stroke="#880000" fill="none" stroke-width="1" display="none"/><path d="M 500 -512 L 503 -515 L 500 -518" fill="none" stroke="#880000" stroke-width="1" display="none"/></g><g locked="0"><text x="501.65" y="-521.66" font-family="Verdana" font-size="4pt" fill="#0000FF" text-anchor="start">PA-10/PWM</text><text x="494.65" y="-525.66" font-family="Verdana" font-size="4pt" fill="#0000FF" text-anchor="end" display="none">7</text><path d="M 480 -525 h 20" fill="none" stroke="#880000" stroke-width="1"/><circle cx="497" cy="-525" r="3" stroke="#880000" fill="none" stroke-width="1" display="none"/><path d="M 500 -522 L 503 -525 L 500 -528" fill="none" stroke="#880000" stroke-width="1" display="none"/></g><g locked="0"><text x="501.65" y="-531.66" font-family="Verdana" font-size="4pt" fill="#0000FF" text-anchor="start">PA-9/SD_D2</text><text x="494.65" y="-535.66" font-family="Verdana" font-size="4pt" fill="#0000FF" text-anchor="end" display="none">6</text><path d="M 480 -535 h 20" fill="none" stroke="#880000" stroke-width="1"/><circle cx="497" cy="-535" r="3" stroke="#880000" fill="none" stroke-width="1" display="none"/><path d="M 500 -532 L 503 -535 L 500 -538" fill="none" stroke="#880000" stroke-width="1" display="none"/></g><g locked="0"><text x="501.65" y="-541.66" font-family="Verdana" font-size="4pt" fill="#0000FF" text-anchor="start">PA-8/SD_D1</text><text x="494.65" y="-545.66" font-family="Verdana" font-size="4pt" fill="#0000FF" text-anchor="end" display="none">5</text><path d="M 480 -545 h 20" fill="none" stroke="#880000" stroke-width="1"/><circle cx="497" cy="-545" r="3" stroke="#880000" fill="none" stroke-width="1" display="none"/><path d="M 500 -542 L 503 -545 L 500 -548" fill="none" stroke="#880000" stroke-width="1" display="none"/></g><g locked="0"><text x="501.65" y="-551.66" font-family="Verdana" font-size="4pt" fill="#0000FF" text-anchor="start">PB15/SD_CK</text><text x="494.65" y="-555.66" font-family="Verdana" font-size="4pt" fill="#0000FF" text-anchor="end" display="none">4</text><path d="M 480 -555 h 20" fill="none" stroke="#880000" stroke-width="1"/><circle cx="497" cy="-555" r="3" stroke="#880000" fill="none" stroke-width="1" display="none"/><path d="M 500 -552 L 503 -555 L 500 -558" fill="none" stroke="#880000" stroke-width="1" display="none"/></g><g locked="0"><text x="501.65" y="-561.66" font-family="Verdana" font-size="4pt" fill="#0000FF" text-anchor="start">PB-14/PWM</text><text x="494.65" y="-565.66" font-family="Verdana" font-size="4pt" fill="#0000FF" text-anchor="end" display="none">3</text><path d="M 480 -565 h 20" fill="none" stroke="#880000" stroke-width="1"/><circle cx="497" cy="-565" r="3" stroke="#880000" fill="none" stroke-width="1" display="none"/><path d="M 500 -562 L 503 -565 L 500 -568" fill="none" stroke="#880000" stroke-width="1" display="none"/></g><g locked="0"><text x="501.65" y="-571.66" font-family="Verdana" font-size="4pt" fill="#0000FF" text-anchor="start">PB-13/PWM</text><text x="494.65" y="-575.66" font-family="Verdana" font-size="4pt" fill="#0000FF" text-anchor="end" display="none">2</text><path d="M 480 -575 h 20" fill="none" stroke="#880000" stroke-width="1"/><circle cx="497" cy="-575" r="3" stroke="#880000" fill="none" stroke-width="1" display="none"/><path d="M 500 -572 L 503 -575 L 500 -578" fill="none" stroke="#880000" stroke-width="1" display="none"/></g><g locked="0"><text x="501.65" y="-581.66" font-family="Verdana" font-size="4pt" fill="#0000FF" text-anchor="start">PB-12</text><text x="494.65" y="-585.66" font-family="Verdana" font-size="4pt" fill="#0000FF" text-anchor="end" display="none">1</text><path d="M 480 -585 h 20" fill="none" stroke="#880000" stroke-width="1"/><circle cx="497" cy="-585" r="3" stroke="#880000" fill="none" stroke-width="1" display="none"/><path d="M 500 -582 L 503 -585 L 500 -588" fill="none" stroke="#880000" stroke-width="1" display="none"/></g><g locked="0"><text x="627.65" y="-581.66" font-family="Verdana" font-size="4pt" fill="#0000FF" text-anchor="end">+5V</text><text x="634.65" y="-585.66" font-family="Verdana" font-size="4pt" fill="#0000FF" text-anchor="start" display="none">40</text><path d="M 650 -585 h -20" fill="none" stroke="#880000" stroke-width="1"/><circle cx="633" cy="-585" r="3" stroke="#880000" fill="none" stroke-width="1" display="none"/><path d="M 630 -588 L 627 -585 L 630 -582" fill="none" stroke="#880000" stroke-width="1" display="none"/></g><g locked="0"><text x="627.65" y="-571.66" font-family="Verdana" font-size="4pt" fill="#0000FF" text-anchor="end">GND</text><text x="634.65" y="-575.66" font-family="Verdana" font-size="4pt" fill="#0000FF" text-anchor="start" display="none">39</text><path d="M 650 -575 h -20" fill="none" stroke="#880000" stroke-width="1"/><circle cx="633" cy="-575" r="3" stroke="#880000" fill="none" stroke-width="1" display="none"/><path d="M 630 -578 L 627 -575 L 630 -572" fill="none" stroke="#880000" stroke-width="1" display="none"/></g><g locked="0"><text x="627.65" y="-561.66" font-family="Verdana" font-size="4pt" fill="#0000FF" text-anchor="end">+3.3V</text><text x="634.65" y="-565.66" font-family="Verdana" font-size="4pt" fill="#0000FF" text-anchor="start" display="none">38</text><path d="M 650 -565 h -20" fill="none" stroke="#880000" stroke-width="1"/><circle cx="633" cy="-565" r="3" stroke="#880000" fill="none" stroke-width="1" display="none"/><path d="M 630 -568 L 627 -565 L 630 -562" fill="none" stroke="#880000" stroke-width="1" display="none"/></g><g locked="0"><text x="627.65" y="-551.66" font-family="Verdana" font-size="4pt" fill="#0000FF" text-anchor="end">SCL2/PB-10</text><text x="634.65" y="-555.66" font-family="Verdana" font-size="4pt" fill="#0000FF" text-anchor="start" display="none">37</text><path d="M 650 -555 h -20" fill="none" stroke="#880000" stroke-width="1"/><circle cx="633" cy="-555" r="3" stroke="#880000" fill="none" stroke-width="1" display="none"/><path d="M 630 -558 L 627 -555 L 630 -552" fill="none" stroke="#880000" stroke-width="1" display="none"/></g><g locked="0"><text x="627.65" y="-541.66" font-family="Verdana" font-size="4pt" fill="#0000FF" text-anchor="end">BOOT1/PB-2</text><text x="634.65" y="-545.66" font-family="Verdana" font-size="4pt" fill="#0000FF" text-anchor="start" display="none">36</text><path d="M 650 -545 h -20" fill="none" stroke="#880000" stroke-width="1"/><circle cx="633" cy="-545" r="3" stroke="#880000" fill="none" stroke-width="1" display="none"/><path d="M 630 -548 L 627 -545 L 630 -542" fill="none" stroke="#880000" stroke-width="1" display="none"/></g><g locked="0"><text x="627.65" y="-531.66" font-family="Verdana" font-size="4pt" fill="#0000FF" text-anchor="end">ADC/PB-1</text><text x="634.65" y="-535.66" font-family="Verdana" font-size="4pt" fill="#0000FF" text-anchor="start" display="none">35</text><path d="M 650 -535 h -20" fill="none" stroke="#880000" stroke-width="1"/><circle cx="633" cy="-535" r="3" stroke="#880000" fill="none" stroke-width="1" display="none"/><path d="M 630 -538 L 627 -535 L 630 -532" fill="none" stroke="#880000" stroke-width="1" display="none"/></g><g locked="0"><text x="627.65" y="-521.66" font-family="Verdana" font-size="4pt" fill="#0000FF" text-anchor="end">ADC/PB-0</text><text x="634.65" y="-525.66" font-family="Verdana" font-size="4pt" fill="#0000FF" text-anchor="start" display="none">34</text><path d="M 650 -525 h -20" fill="none" stroke="#880000" stroke-width="1"/><circle cx="633" cy="-525" r="3" stroke="#880000" fill="none" stroke-width="1" display="none"/><path d="M 630 -528 L 627 -525 L 630 -522" fill="none" stroke="#880000" stroke-width="1" display="none"/></g><g locked="0"><text x="627.65" y="-511.66" font-family="Verdana" font-size="4pt" fill="#0000FF" text-anchor="end">ADC/PA-7</text><text x="634.65" y="-515.66" font-family="Verdana" font-size="4pt" fill="#0000FF" text-anchor="start" display="none">33</text><path d="M 650 -515 h -20" fill="none" stroke="#880000" stroke-width="1"/><circle cx="633" cy="-515" r="3" stroke="#880000" fill="none" stroke-width="1" display="none"/><path d="M 630 -518 L 627 -515 L 630 -512" fill="none" stroke="#880000" stroke-width="1" display="none"/></g><g locked="0"><text x="627.65" y="-501.66" font-family="Verdana" font-size="4pt" fill="#0000FF" text-anchor="end">SD_CMD/PA-6</text><text x="634.65" y="-505.66" font-family="Verdana" font-size="4pt" fill="#0000FF" text-anchor="start" display="none">32</text><path d="M 650 -505 h -20" fill="none" stroke="#880000" stroke-width="1"/><circle cx="633" cy="-505" r="3" stroke="#880000" fill="none" stroke-width="1" display="none"/><path d="M 630 -508 L 627 -505 L 630 -502" fill="none" stroke="#880000" stroke-width="1" display="none"/></g><g locked="0"><text x="627.65" y="-491.66" font-family="Verdana" font-size="4pt" fill="#0000FF" text-anchor="end">ADC/PA-5</text><text x="634.65" y="-495.66" font-family="Verdana" font-size="4pt" fill="#0000FF" text-anchor="start" display="none">31</text><path d="M 650 -495 h -20" fill="none" stroke="#880000" stroke-width="1"/><circle cx="633" cy="-495" r="3" stroke="#880000" fill="none" stroke-width="1" display="none"/><path d="M 630 -498 L 627 -495 L 630 -492" fill="none" stroke="#880000" stroke-width="1" display="none"/></g><g locked="0"><text x="627.65" y="-481.66" font-family="Verdana" font-size="4pt" fill="#0000FF" text-anchor="end">ADC/PA-4</text><text x="634.65" y="-485.66" font-family="Verdana" font-size="4pt" fill="#0000FF" text-anchor="start" display="none">30</text><path d="M 650 -485 h -20" fill="none" stroke="#880000" stroke-width="1"/><circle cx="633" cy="-485" r="3" stroke="#880000" fill="none" stroke-width="1" display="none"/><path d="M 630 -488 L 627 -485 L 630 -482" fill="none" stroke="#880000" stroke-width="1" display="none"/></g><g locked="0"><text x="627.65" y="-471.66" font-family="Verdana" font-size="4pt" fill="#0000FF" text-anchor="end">RX2/PA-3</text><text x="634.65" y="-475.66" font-family="Verdana" font-size="4pt" fill="#0000FF" text-anchor="start" display="none">29</text><path d="M 650 -475 h -20" fill="none" stroke="#880000" stroke-width="1"/><circle cx="633" cy="-475" r="3" stroke="#880000" fill="none" stroke-width="1" display="none"/><path d="M 630 -478 L 627 -475 L 630 -472" fill="none" stroke="#880000" stroke-width="1" display="none"/></g><g locked="0"><text x="627.65" y="-461.66" font-family="Verdana" font-size="4pt" fill="#0000FF" text-anchor="end">TX2/PA-2</text><text x="634.65" y="-465.66" font-family="Verdana" font-size="4pt" fill="#0000FF" text-anchor="start" display="none">28</text><path d="M 650 -465 h -20" fill="none" stroke="#880000" stroke-width="1"/><circle cx="633" cy="-465" r="3" stroke="#880000" fill="none" stroke-width="1" display="none"/><path d="M 630 -468 L 627 -465 L 630 -462" fill="none" stroke="#880000" stroke-width="1" display="none"/></g><g locked="0"><text x="627.65" y="-451.66" font-family="Verdana" font-size="4pt" fill="#0000FF" text-anchor="end">ADC/PA-1</text><text x="634.65" y="-455.66" font-family="Verdana" font-size="4pt" fill="#0000FF" text-anchor="start" display="none">27</text><path d="M 650 -455 h -20" fill="none" stroke="#880000" stroke-width="1"/><circle cx="633" cy="-455" r="3" stroke="#880000" fill="none" stroke-width="1" display="none"/><path d="M 630 -458 L 627 -455 L 630 -452" fill="none" stroke="#880000" stroke-width="1" display="none"/></g><g locked="0"><text x="627.65" y="-441.66" font-family="Verdana" font-size="4pt" fill="#0000FF" text-anchor="end">3.3/PA-0</text><text x="634.65" y="-445.66" font-family="Verdana" font-size="4pt" fill="#0000FF" text-anchor="start" display="none">26</text><path d="M 650 -445 h -20" fill="none" stroke="#880000" stroke-width="1"/><circle cx="633" cy="-445" r="3" stroke="#880000" fill="none" stroke-width="1" display="none"/><path d="M 630 -448 L 627 -445 L 630 -442" fill="none" stroke="#880000" stroke-width="1" display="none"/></g><g locked="0"><text x="627.65" y="-431.66" font-family="Verdana" font-size="4pt" fill="#0000FF" text-anchor="end">NRST</text><text x="634.65" y="-435.66" font-family="Verdana" font-size="4pt" fill="#0000FF" text-anchor="start" display="none">25</text><path d="M 650 -435 h -20" fill="none" stroke="#880000" stroke-width="1"/><circle cx="633" cy="-435" r="3" stroke="#880000" fill="none" stroke-width="1" display="none"/><path d="M 630 -438 L 627 -435 L 630 -432" fill="none" stroke="#880000" stroke-width="1" display="none"/></g><g locked="0"><text x="627.65" y="-421.66" font-family="Verdana" font-size="4pt" fill="#0000FF" text-anchor="end">OSC/PC-15</text><text x="634.65" y="-425.66" font-family="Verdana" font-size="4pt" fill="#0000FF" text-anchor="start" display="none">24</text><path d="M 650 -425 h -20" fill="none" stroke="#880000" stroke-width="1"/><circle cx="633" cy="-425" r="3" stroke="#880000" fill="none" stroke-width="1" display="none"/><path d="M 630 -428 L 627 -425 L 630 -422" fill="none" stroke="#880000" stroke-width="1" display="none"/></g><g locked="0"><text x="627.65" y="-411.66" font-family="Verdana" font-size="4pt" fill="#0000FF" text-anchor="end">OSC/PC-14</text><text x="634.65" y="-415.66" font-family="Verdana" font-size="4pt" fill="#0000FF" text-anchor="start" display="none">23</text><path d="M 650 -415 h -20" fill="none" stroke="#880000" stroke-width="1"/><circle cx="633" cy="-415" r="3" stroke="#880000" fill="none" stroke-width="1" display="none"/><path d="M 630 -418 L 627 -415 L 630 -412" fill="none" stroke="#880000" stroke-width="1" display="none"/></g><g locked="0"><text x="627.65" y="-401.66" font-family="Verdana" font-size="4pt" fill="#0000FF" text-anchor="end">LED/PC-13</text><text x="634.65" y="-405.66" font-family="Verdana" font-size="4pt" fill="#0000FF" text-anchor="start" display="none">22</text><path d="M 650 -405 h -20" fill="none" stroke="#880000" stroke-width="1"/><circle cx="633" cy="-405" r="3" stroke="#880000" fill="none" stroke-width="1" display="none"/><path d="M 630 -408 L 627 -405 L 630 -402" fill="none" stroke="#880000" stroke-width="1" display="none"/></g><g locked="0"><text x="627.65" y="-391.66" font-family="Verdana" font-size="4pt" fill="#0000FF" text-anchor="end">VBAT</text><text x="634.65" y="-395.66" font-family="Verdana" font-size="4pt" fill="#0000FF" text-anchor="start" display="none">21</text><path d="M 650 -395 h -20" fill="none" stroke="#880000" stroke-width="1"/><circle cx="633" cy="-395" r="3" stroke="#880000" fill="none" stroke-width="1" display="none"/><path d="M 630 -398 L 627 -395 L 630 -392" fill="none" stroke="#880000" stroke-width="1" display="none"/></g><rect locked="0" x="500" y="-595" width="130" height="210" stroke="#000000" stroke-width="1" fill="none"/><g puuid="e86e066fd4434a2480efc959577803d6" uuid="c0fb0d09ee0e42db9bf8dae8d77aa113" convert_to_pcb="" datastrid="12270197148f45f399a2b58839740702" pdatastrid="79896f952ed143f488db3561325039fe" utime="1747074407" add_into_bom="" note_name="TTL485"><g display="none"><text font-family="Arial" font-size="7pt" fill="#000080" text-anchor="start" x="840" y="-598">TTL485</text></g><g><text x="820.345832824707" y="-591.75" font-family="Arial" font-size="7pt" fill="#000080" text-anchor="start" value="USB-TTL">USB-TTL</text></g><rect locked="0" x="815" y="-590" rx="2" ry="2" width="50" height="50" stroke="#880000" stroke-width="1" fill="none"/><ellipse cx="820" cy="-585" rx="1.5" ry="1.5" locked="0" stroke="#880000" stroke-width="1" fill="#880000"/><g locked="0"><text x="818.7" y="-576" font-family="Verdana" font-size="7pt" fill="#FF0000" text-anchor="start">VCC</text><text x="814.5" y="-581" font-family="Verdana" font-size="7pt" fill="#FF0000" text-anchor="end">1</text><path d="M 805 -580 h 10" fill="none" stroke="#FF0000" stroke-width="1"/><circle cx="812" cy="-580" r="3" stroke="#FF0000" fill="none" stroke-width="1" display="none"/><path d="M 815 -577 L 818 -580 L 815 -583" fill="none" stroke="#FF0000" stroke-width="1" display="none"/></g><g locked="0"><text x="818.7" y="-566" font-family="Verdana" font-size="7pt" fill="#0000FF" text-anchor="start">TXD</text><text x="814.5" y="-571" font-family="Verdana" font-size="7pt" fill="#0000FF" text-anchor="end">2</text><path d="M 805 -570 h 10" fill="none" stroke="#880000" stroke-width="1"/><circle cx="812" cy="-570" r="3" stroke="#880000" fill="none" stroke-width="1" display="none"/><path d="M 815 -567 L 818 -570 L 815 -573" fill="none" stroke="#880000" stroke-width="1" display="none"/></g><g locked="0"><text x="818.7" y="-556" font-family="Verdana" font-size="7pt" fill="#0000FF" text-anchor="start">RXD</text><text x="814.5" y="-561" font-family="Verdana" font-size="7pt" fill="#0000FF" text-anchor="end">3</text><path d="M 805 -560 h 10" fill="none" stroke="#880000" stroke-width="1"/><circle cx="812" cy="-560" r="3" stroke="#880000" fill="none" stroke-width="1" display="none"/><path d="M 815 -557 L 818 -560 L 815 -563" fill="none" stroke="#880000" stroke-width="1" display="none"/></g><g locked="0"><text x="818.7" y="-546" font-family="Verdana" font-size="7pt" fill="#000000" text-anchor="start">GND</text><text x="814.5" y="-551" font-family="Verdana" font-size="7pt" fill="#000000" text-anchor="end">4</text><path d="M 805 -550 h 10" fill="none" stroke="#000000" stroke-width="1"/><circle cx="812" cy="-550" r="3" stroke="#000000" fill="none" stroke-width="1" display="none"/><path d="M 815 -547 L 818 -550 L 815 -553" fill="none" stroke="#000000" stroke-width="1" display="none"/></g><g locked="0"><text x="861.3" y="-551" font-family="Verdana" font-size="7pt" fill="#0000FF" text-anchor="end">S</text><text x="865.5" y="-556" font-family="Verdana" font-size="7pt" fill="#0000FF" text-anchor="start">5</text><path d="M 875 -555 h -10" fill="none" stroke="#880000" stroke-width="1"/><circle cx="868" cy="-555" r="3" stroke="#880000" fill="none" stroke-width="1" display="none"/><path d="M 865 -558 L 862 -555 L 865 -552" fill="none" stroke="#880000" stroke-width="1" display="none"/></g><g locked="0"><text x="861.3" y="-561" font-family="Verdana" font-size="7pt" fill="#0000FF" text-anchor="end">B-</text><text x="865.5" y="-566" font-family="Verdana" font-size="7pt" fill="#0000FF" text-anchor="start">6</text><path d="M 875 -565 h -10" fill="none" stroke="#880000" stroke-width="1"/><circle cx="868" cy="-565" r="3" stroke="#880000" fill="none" stroke-width="1" display="none"/><path d="M 865 -568 L 862 -565 L 865 -562" fill="none" stroke="#880000" stroke-width="1" display="none"/></g><g locked="0"><text x="861.3" y="-571" font-family="Verdana" font-size="7pt" fill="#0000FF" text-anchor="end">A+</text><text x="865.5" y="-576" font-family="Verdana" font-size="7pt" fill="#0000FF" text-anchor="start">7</text><path d="M 875 -575 h -10" fill="none" stroke="#880000" stroke-width="1"/><circle cx="868" cy="-575" r="3" stroke="#880000" fill="none" stroke-width="1" display="none"/><path d="M 865 -578 L 862 -575 L 865 -572" fill="none" stroke="#880000" stroke-width="1" display="none"/></g><g style="display: none;"><title>This component is unmounted</title><text x="803" y="-529" fill="red" style="font-size: 7pt; font-family: Arial;">(R)</text></g></g><g puuid="1efb3a885b5b4aecb6d41221a8f4d86b" uuid="5cbe824183374fac8e4c1ae848199ce3" convert_to_pcb="" datastrid="" pdatastrid="" utime="1586866965" add_into_bom="" note_name="LED-0603_R"><g display="none"><text font-family="Arial" font-size="7pt" fill="#000080" text-anchor="start" x="738.3166675567627" y="-421.75">LED-0603_R</text></g><g><text x="740" y="-388" font-family="Arial" font-size="7pt" fill="#000080" text-anchor="start" value="LED">LED</text></g><path d="M 735 -364 L 745 -370 L 735 -377 Z " locked="0" stroke="#880000" stroke-width="1" fill="#FF0000"/><polyline points="745 -378 745 -362" stroke="#880000" locked="0" stroke-width="1" fill="#FF0000" stroke-linecap="round"/><polyline points="745 -380 749 -384" stroke="#880000" locked="0" stroke-width="1" fill="#880000" stroke-linecap="round"/><polyline points="749 -376 753 -380" stroke="#880000" locked="0" stroke-width="1" fill="#880000" stroke-linecap="round"/><path d="M 752 -387 L 748 -385 L 750 -383 Z " locked="0" stroke="#880000" stroke-width="1" fill="#FF0000"/><path d="M 756 -383 L 752 -381 L 754 -379 Z " locked="0" stroke="#880000" stroke-width="1" fill="#FF0000"/><g locked="0"><text x="737" y="-367" font-family="Verdana" font-size="7pt" fill="#0000FF" text-anchor="start" display="none">1</text><text x="733" y="-371" font-family="Verdana" font-size="7pt" fill="#0000FF" text-anchor="end" display="none">1</text><path d="M 720 -370 h 15" fill="none" stroke="#880000" stroke-width="1"/><circle cx="732" cy="-370" r="3" stroke="#880000" fill="none" stroke-width="1" display="none"/><path d="M 735 -367 L 738 -370 L 735 -373" fill="none" stroke="#880000" stroke-width="1" display="none"/></g><g locked="0"><text x="743" y="-367" font-family="Verdana" font-size="7pt" fill="#0000FF" text-anchor="end" display="none">2</text><text x="747" y="-371" font-family="Verdana" font-size="7pt" fill="#0000FF" text-anchor="start" display="none">2</text><path d="M 760 -370 h -15" fill="none" stroke="#880000" stroke-width="1"/><circle cx="748" cy="-370" r="3" stroke="#880000" fill="none" stroke-width="1" display="none"/><path d="M 745 -373 L 742 -370 L 745 -367" fill="none" stroke="#880000" stroke-width="1" display="none"/></g><g style="display: none;"><title>This component is unmounted</title><text x="718" y="-351" fill="red" style="font-size: 7pt; font-family: Arial;">(R)</text></g></g><g puuid="54d6aa9e3296462a80980f309b79355e" uuid="f6b71770f06a4f42ab4eeaa4b53df225" convert_to_pcb="" datastrid="ee39383c18ce46cfa9fdc241f3e7f8d9" pdatastrid="f9c5f1e637de4fba98d26b5ee8ae8e18" utime="1747074559" add_into_bom="" note_name="BUZZER_C9900021864"><g display="none"><text font-family="Arial" font-size="7pt" fill="#000080" text-anchor="start" x="724.6749992370605" y="-451.75">BUZZER_C9900021864</text></g><g><text x="726.5375003814697" y="-441.75" font-family="Arial" font-size="7pt" fill="#000080" text-anchor="start" value="BUZZER">BUZZER</text></g><polyline points="735 -427 745 -427" stroke="#880000" locked="0" stroke-width="1" fill="none" stroke-linecap="round"/><polyline points="735 -413 745 -413" stroke="#880000" locked="0" stroke-width="1" fill="none" stroke-linecap="round"/><polyline points="735 -427 735 -413" stroke="#880000" locked="0" stroke-width="1" fill="none" stroke-linecap="round"/><polyline points="745 -427 745 -413" stroke="#880000" locked="0" stroke-width="1" fill="none" stroke-linecap="round"/><polyline points="754 -435 754 -405" stroke="#880000" locked="0" stroke-width="1" fill="none" stroke-linecap="round"/><polyline points="745 -413 754 -405" stroke="#880000" locked="0" stroke-width="1" fill="none" stroke-linecap="round"/><polyline points="754 -435 745 -427" stroke="#880000" locked="0" stroke-width="1" fill="none" stroke-linecap="round"/><g locked="0"><text x="738" y="-412" font-family="Verdana" font-size="7pt" fill="#0000FF" text-anchor="start" display="none">1</text><text x="729" y="-416" font-family="Verdana" font-size="7pt" fill="#0000FF" text-anchor="end" display="none">1</text><path d="M 725 -415 h 10" fill="none" stroke="#880000" stroke-width="1"/><circle cx="732" cy="-415" r="3" stroke="#880000" fill="none" stroke-width="1" display="none"/><path d="M 735 -412 L 738 -415 L 735 -418" fill="none" stroke="#880000" stroke-width="1" display="none"/></g><g locked="0"><text x="738" y="-422" font-family="Verdana" font-size="7pt" fill="#0000FF" text-anchor="start">+</text><text x="729" y="-426" font-family="Verdana" font-size="7pt" fill="#0000FF" text-anchor="end" display="none">2</text><path d="M 725 -425 h 10" fill="none" stroke="#880000" stroke-width="1"/><circle cx="732" cy="-425" r="3" stroke="#880000" fill="none" stroke-width="1" display="none"/><path d="M 735 -422 L 738 -425 L 735 -428" fill="none" stroke="#880000" stroke-width="1" display="none"/></g><g style="display: none;"><title>This component is unmounted</title><text x="723" y="-394" fill="red" style="font-size: 7pt; font-family: Arial;">(R)</text></g></g><g puuid="b35dd6304b4d479fa5566cb14ea37c50" uuid="fd0d1707e070432aa35c53f436bea3bf" convert_to_pcb="" datastrid="62b16d8c490347938ac53bdeefc0ab79" pdatastrid="5be9a8b4f13b41c0ae2438fe5c2d4264" utime="1717265572" add_into_bom="" note_name="VL53L0X_C9900091875"><g display="none"><text font-family="Arial" font-size="7pt" fill="#000080" text-anchor="start" x="225" y="-518">VL53L0X_C9900091875</text></g><g><text x="235.88596534729004" y="-506.84210681915283" font-family="Arial" font-size="7pt" fill="#000080" text-anchor="start" value="VL53L0X">VL53L0X</text></g><rect locked="0" x="200" y="-505" rx="2" ry="2" width="110" height="70" stroke="#880000" stroke-width="1" fill="none"/><ellipse cx="205" cy="-500" rx="1.5" ry="1.5" locked="0" stroke="#880000" stroke-width="1" fill="#880000"/><g locked="0"><text x="203.70000000000005" y="-491" font-family="Verdana" font-size="7pt" fill="#FF0000" text-anchor="start">AVDDVCSEL</text><text x="199.5" y="-496" font-family="Verdana" font-size="7pt" fill="#FF0000" text-anchor="end">1</text><path d="M 190 -495 h 10" fill="none" stroke="#FF0000" stroke-width="1"/><circle cx="197" cy="-495" r="3" stroke="#FF0000" fill="none" stroke-width="1" display="none"/><path d="M 200 -492 L 203 -495 L 200 -498" fill="none" stroke="#FF0000" stroke-width="1" display="none"/></g><g locked="0"><text x="203.70000000000005" y="-481" font-family="Verdana" font-size="7pt" fill="#000000" text-anchor="start">AVSSVCSEL</text><text x="199.5" y="-486" font-family="Verdana" font-size="7pt" fill="#000000" text-anchor="end">2</text><path d="M 190 -485 h 10" fill="none" stroke="#000000" stroke-width="1"/><circle cx="197" cy="-485" r="3" stroke="#000000" fill="none" stroke-width="1" display="none"/><path d="M 200 -482 L 203 -485 L 200 -488" fill="none" stroke="#000000" stroke-width="1" display="none"/></g><g locked="0"><text x="203.70000000000005" y="-471" font-family="Verdana" font-size="7pt" fill="#000000" text-anchor="start">GND</text><text x="199.5" y="-476" font-family="Verdana" font-size="7pt" fill="#000000" text-anchor="end">3</text><path d="M 190 -475 h 10" fill="none" stroke="#000000" stroke-width="1"/><circle cx="197" cy="-475" r="3" stroke="#000000" fill="none" stroke-width="1" display="none"/><path d="M 200 -472 L 203 -475 L 200 -478" fill="none" stroke="#000000" stroke-width="1" display="none"/></g><g locked="0"><text x="203.70000000000005" y="-461" font-family="Verdana" font-size="7pt" fill="#000000" text-anchor="start">GND2</text><text x="199.5" y="-466" font-family="Verdana" font-size="7pt" fill="#000000" text-anchor="end">4</text><path d="M 190 -465 h 10" fill="none" stroke="#000000" stroke-width="1"/><circle cx="197" cy="-465" r="3" stroke="#000000" fill="none" stroke-width="1" display="none"/><path d="M 200 -462 L 203 -465 L 200 -468" fill="none" stroke="#000000" stroke-width="1" display="none"/></g><g locked="0"><text x="203.70000000000005" y="-451" font-family="Verdana" font-size="7pt" fill="#0000FF" text-anchor="start">XSHUT</text><text x="199.5" y="-456" font-family="Verdana" font-size="7pt" fill="#0000FF" text-anchor="end">5</text><path d="M 190 -455 h 10" fill="none" stroke="#880000" stroke-width="1"/><circle cx="197" cy="-455" r="3" stroke="#880000" fill="none" stroke-width="1" display="none"/><path d="M 200 -452 L 203 -455 L 200 -458" fill="none" stroke="#880000" stroke-width="1" display="none"/></g><g locked="0"><text x="203.70000000000005" y="-441" font-family="Verdana" font-size="7pt" fill="#000000" text-anchor="start">GND3</text><text x="199.5" y="-446" font-family="Verdana" font-size="7pt" fill="#000000" text-anchor="end">6</text><path d="M 190 -445 h 10" fill="none" stroke="#000000" stroke-width="1"/><circle cx="197" cy="-445" r="3" stroke="#000000" fill="none" stroke-width="1" display="none"/><path d="M 200 -442 L 203 -445 L 200 -448" fill="none" stroke="#000000" stroke-width="1" display="none"/></g><g locked="0"><text x="306.29999999999995" y="-441" font-family="Verdana" font-size="7pt" fill="#0000FF" text-anchor="end">GPIO1</text><text x="310.5" y="-446" font-family="Verdana" font-size="7pt" fill="#0000FF" text-anchor="start">7</text><path d="M 320 -445 h -10" fill="none" stroke="#880000" stroke-width="1"/><circle cx="313" cy="-445" r="3" stroke="#880000" fill="none" stroke-width="1" display="none"/><path d="M 310 -448 L 307 -445 L 310 -442" fill="none" stroke="#880000" stroke-width="1" display="none"/></g><g locked="0"><text x="306.29999999999995" y="-451" font-family="Verdana" font-size="7pt" fill="#0000FF" text-anchor="end">DNC</text><text x="310.5" y="-456" font-family="Verdana" font-size="7pt" fill="#0000FF" text-anchor="start">8</text><path d="M 320 -455 h -10" fill="none" stroke="#880000" stroke-width="1"/><circle cx="313" cy="-455" r="3" stroke="#880000" fill="none" stroke-width="1" display="none"/><path d="M 310 -458 L 307 -455 L 310 -452" fill="none" stroke="#880000" stroke-width="1" display="none"/></g><g locked="0"><text x="306.29999999999995" y="-461" font-family="Verdana" font-size="7pt" fill="#0000FF" text-anchor="end">SDA</text><text x="310.5" y="-466" font-family="Verdana" font-size="7pt" fill="#0000FF" text-anchor="start">9</text><path d="M 320 -465 h -10" fill="none" stroke="#880000" stroke-width="1"/><circle cx="313" cy="-465" r="3" stroke="#880000" fill="none" stroke-width="1" display="none"/><path d="M 310 -468 L 307 -465 L 310 -462" fill="none" stroke="#880000" stroke-width="1" display="none"/></g><g locked="0"><text x="306.29999999999995" y="-471" font-family="Verdana" font-size="7pt" fill="#0000FF" text-anchor="end">SCL</text><text x="310.5" y="-476" font-family="Verdana" font-size="7pt" fill="#0000FF" text-anchor="start">10</text><path d="M 320 -475 h -10" fill="none" stroke="#880000" stroke-width="1"/><circle cx="313" cy="-475" r="3" stroke="#880000" fill="none" stroke-width="1" display="none"/><path d="M 310 -478 L 307 -475 L 310 -472" fill="none" stroke="#880000" stroke-width="1" display="none"/></g><g locked="0"><text x="306.29999999999995" y="-481" font-family="Verdana" font-size="7pt" fill="#FF0000" text-anchor="end">AVDD</text><text x="310.5" y="-486" font-family="Verdana" font-size="7pt" fill="#FF0000" text-anchor="start">11</text><path d="M 320 -485 h -10" fill="none" stroke="#FF0000" stroke-width="1"/><circle cx="313" cy="-485" r="3" stroke="#FF0000" fill="none" stroke-width="1" display="none"/><path d="M 310 -488 L 307 -485 L 310 -482" fill="none" stroke="#FF0000" stroke-width="1" display="none"/></g><g locked="0"><text x="306.29999999999995" y="-491" font-family="Verdana" font-size="7pt" fill="#000000" text-anchor="end">GND4</text><text x="310.5" y="-496" font-family="Verdana" font-size="7pt" fill="#000000" text-anchor="start">12</text><path d="M 320 -495 h -10" fill="none" stroke="#000000" stroke-width="1"/><circle cx="313" cy="-495" r="3" stroke="#000000" fill="none" stroke-width="1" display="none"/><path d="M 310 -498 L 307 -495 L 310 -492" fill="none" stroke="#000000" stroke-width="1" display="none"/></g><g style="display: none;"><title>This component is unmounted</title><text x="188" y="-424" fill="red" style="font-size: 7pt; font-family: Arial;">(R)</text></g></g><g puuid="398691f1f785460098bbe5ee6590333c" uuid="b0248eb51e084227889f2cb84eab79c4" convert_to_pcb="" datastrid="" pdatastrid="" utime="1586861892" add_into_bom="" note_name="1k"><g display="none"><text font-family="Arial" font-size="7pt" fill="#000080" text-anchor="start" x="350.00657892227173" y="-391.84210681915283">1k</text></g><g><text x="355.4958333969116" y="-391.75" font-family="Arial" font-size="7pt" fill="#000080" text-anchor="start" value="4.7K">4.7K</text></g><polyline points="380 -385 377 -380" stroke="#A00000" locked="0" stroke-width="1" fill="none" stroke-linecap="round"/><polyline points="372 -390 367 -380" stroke="#A00000" locked="0" stroke-width="1" fill="none" stroke-linecap="round"/><polyline points="377 -380 372 -390" stroke="#A00000" locked="0" stroke-width="1" fill="none" stroke-linecap="round"/><g locked="0"><text x="376" y="-385" font-family="Verdana" font-size="7pt" fill="#800" text-anchor="end" display="none">2</text><text x="384" y="-389" font-family="Verdana" font-size="7pt" fill="#800" text-anchor="start" display="none">2</text><path d="M 385 -385 h -5" fill="none" stroke="#800" stroke-width="1"/><circle cx="383" cy="-385" r="3" stroke="#800" fill="none" stroke-width="1" display="none"/><path d="M 380 -388 L 377 -385 L 380 -382" fill="none" stroke="#800" stroke-width="1" display="none"/></g><polyline points="358 -380 353 -390" stroke="#A00000" locked="0" stroke-width="1" fill="none" stroke-linecap="round"/><polyline points="367 -380 363 -390" stroke="#A00000" locked="0" stroke-width="1" fill="none" stroke-linecap="round"/><polyline points="363 -390 358 -380" stroke="#A00000" locked="0" stroke-width="1" fill="none" stroke-linecap="round"/><polyline points="353 -390 350 -385" stroke="#A00000" locked="0" stroke-width="1" fill="none" stroke-linecap="round"/><g locked="0"><text x="354" y="-385" font-family="Verdana" font-size="7pt" fill="#800" text-anchor="start" display="none">1</text><text x="346" y="-389" font-family="Verdana" font-size="7pt" fill="#800" text-anchor="end" display="none">1</text><path d="M 345 -385 h 5" fill="none" stroke="#800" stroke-width="1"/><circle cx="347" cy="-385" r="3" stroke="#800" fill="none" stroke-width="1" display="none"/><path d="M 350 -382 L 353 -385 L 350 -388" fill="none" stroke="#800" stroke-width="1" display="none"/></g><g style="display: none;"><title>This component is unmounted</title><text x="343" y="-369" fill="red" style="font-size: 7pt; font-family: Arial;">(R)</text></g></g><g puuid="398691f1f785460098bbe5ee6590333c" uuid="b0248eb51e084227889f2cb84eab79c4" convert_to_pcb="" datastrid="" pdatastrid="" utime="1586861892" add_into_bom="" note_name="1k"><g display="none"><text font-family="Arial" font-size="7pt" fill="#000080" text-anchor="start" x="365" y="-363">1k</text></g><g><text x="355.49584770202637" y="-356.75" font-family="Arial" font-size="7pt" fill="#000080" text-anchor="start" value="4.7K">4.7K</text></g><polyline points="380 -350 377 -345" stroke="#A00000" locked="0" stroke-width="1" fill="none" stroke-linecap="round"/><polyline points="372 -355 367 -345" stroke="#A00000" locked="0" stroke-width="1" fill="none" stroke-linecap="round"/><polyline points="377 -345 372 -355" stroke="#A00000" locked="0" stroke-width="1" fill="none" stroke-linecap="round"/><g locked="0"><text x="376" y="-350" font-family="Verdana" font-size="7pt" fill="#800" text-anchor="end" display="none">2</text><text x="384" y="-354" font-family="Verdana" font-size="7pt" fill="#800" text-anchor="start" display="none">2</text><path d="M 385 -350 h -5" fill="none" stroke="#800" stroke-width="1"/><circle cx="383" cy="-350" r="3" stroke="#800" fill="none" stroke-width="1" display="none"/><path d="M 380 -353 L 377 -350 L 380 -347" fill="none" stroke="#800" stroke-width="1" display="none"/></g><polyline points="358 -345 353 -355" stroke="#A00000" locked="0" stroke-width="1" fill="none" stroke-linecap="round"/><polyline points="367 -345 363 -355" stroke="#A00000" locked="0" stroke-width="1" fill="none" stroke-linecap="round"/><polyline points="363 -355 358 -345" stroke="#A00000" locked="0" stroke-width="1" fill="none" stroke-linecap="round"/><polyline points="353 -355 350 -350" stroke="#A00000" locked="0" stroke-width="1" fill="none" stroke-linecap="round"/><g locked="0"><text x="354" y="-350" font-family="Verdana" font-size="7pt" fill="#800" text-anchor="start" display="none">1</text><text x="346" y="-354" font-family="Verdana" font-size="7pt" fill="#800" text-anchor="end" display="none">1</text><path d="M 345 -350 h 5" fill="none" stroke="#800" stroke-width="1"/><circle cx="347" cy="-350" r="3" stroke="#800" fill="none" stroke-width="1" display="none"/><path d="M 350 -347 L 353 -350 L 350 -353" fill="none" stroke="#800" stroke-width="1" display="none"/></g><g style="display: none;"><title>This component is unmounted</title><text x="343" y="-334" fill="red" style="font-size: 7pt; font-family: Arial;">(R)</text></g></g><polyline points="650 -475 670 -475 670 -570 805 -570" stroke="#008800" stroke-width="1" fill="none"/><polyline points="650 -465 680 -465 680 -560 805 -560" stroke="#008800" stroke-width="1" fill="none"/><polyline points="650 -575 760 -575 760 -550 805 -550" stroke="#008800" stroke-width="1" fill="none"/><polyline points="480 -455 340 -455 340 -475 320 -475" stroke="#008800" stroke-width="1" fill="none"/><polyline points="480 -445 330 -445 330 -465 320 -465" stroke="#008800" stroke-width="1" fill="none"/><polyline points="345 -385 340 -385 340 -455" stroke="#008800" stroke-width="1" fill="none"/><polyline points="345 -350 330 -350 330 -445" stroke="#008800" stroke-width="1" fill="none"/><polyline points="480 -395 405 -395 405 -350 385 -350" stroke="#008800" stroke-width="1" fill="none"/><polyline points="385 -385 405 -385" stroke="#008800" stroke-width="1" fill="none"/><polyline points="480 -405 355 -405 355 -495 320 -495" stroke="#008800" stroke-width="1" fill="none"/><polyline points="320 -485 420 -485 420 -395" stroke="#008800" stroke-width="1" fill="none"/><polyline points="650 -505 695 -505 695 -425 725 -425" stroke="#008800" stroke-width="1" fill="none"/><polyline points="650 -515 685 -515 685 -370 720 -370" stroke="#008800" stroke-width="1" fill="none"/><polyline points="725 -415 710 -415 710 -575" stroke="#008800" stroke-width="1" fill="none"/><polyline points="760 -370 760 -345 710 -345 710 -415" stroke="#008800" stroke-width="1" fill="none"/><g><circle cx="340" cy="-455" r="2.5" fill="#CC0000" stroke-width="1"/></g><g><circle cx="330" cy="-445" r="2.5" fill="#CC0000" stroke-width="1"/></g><g><circle cx="405" cy="-385" r="2.5" fill="#CC0000" stroke-width="1"/></g><g><circle cx="420" cy="-395" r="2.5" fill="#CC0000" stroke-width="1"/></g><g><circle cx="710" cy="-575" r="2.5" fill="#CC0000" stroke-width="1"/></g><g><circle cx="710" cy="-415" r="2.5" fill="#CC0000" stroke-width="1"/></g></g></svg>